<?xml version="1.0" standalone="no"?>
<!DOCTYPE svg PUBLIC "-//W3C//DTD SVG 20010904//EN"
 "http://www.w3.org/TR/2001/REC-SVG-20010904/DTD/svg10.dtd">
<svg version="1.0" xmlns="http://www.w3.org/2000/svg"
 width="260.000000pt" height="260.000000pt" viewBox="0 0 260.000000 260.000000"
 preserveAspectRatio="xMidYMid meet">
<metadata>
Created by potrace 1.11, written by Peter Selinger 2001-2013
</metadata>
<g transform="translate(0.000000,260.000000) scale(0.100000,-0.100000)"
fill="#000000" stroke="none">
<path d="M1825 2248 c-6 -16 -92 -376 -99 -409 -2 -13 -14 -62 -26 -109 -12
-47 -24 -96 -27 -110 -2 -14 -11 -49 -19 -77 l-15 -53 -65 0 c-35 0 -64 -2
-64 -5 0 -5 67 -130 168 -315 68 -125 92 -174 92 -186 0 -12 -11 -33 -95 -189
-18 -33 -63 -118 -100 -190 -37 -71 -72 -136 -78 -143 -7 -9 21 -12 134 -12
l144 1 30 67 c16 37 50 112 76 167 l47 100 42 -90 c23 -49 57 -125 77 -167
l36 -78 138 0 138 0 -12 28 c-7 15 -37 74 -68 132 -31 58 -85 159 -119 225
-35 66 -67 125 -72 132 -6 8 15 58 63 150 40 76 75 143 79 148 4 6 33 59 65
118 l57 108 -142 -3 -141 -3 -67 -147 c-37 -81 -70 -148 -73 -148 -4 0 -37 68
-75 150 -38 83 -74 150 -81 150 -7 0 -13 4 -13 9 0 10 56 247 111 467 16 66
31 129 33 140 2 10 11 47 20 80 9 34 16 65 16 68 0 12 -111 6 -115 -6z"/>
<path d="M1360 2091 c-124 -54 -246 -108 -272 -120 l-47 -21 1 -66 c2 -61 3
-66 31 -80 26 -14 27 -17 14 -37 -26 -41 -38 -94 -40 -183 l-2 -89 -67 -3 -67
-3 -3 -54 -3 -54 -45 28 c-40 25 -82 45 -230 108 -96 42 -157 73 -177 90 -33
30 -51 81 -49 144 3 92 45 137 138 145 97 9 154 -42 165 -149 l5 -54 132 1
131 1 3 29 c2 16 -2 58 -8 94 -35 199 -182 296 -440 288 -266 -8 -399 -135
-405 -387 -5 -228 81 -333 359 -433 156 -57 211 -94 235 -159 16 -41 13 -124
-4 -160 -51 -106 -242 -114 -304 -13 -20 32 -26 62 -31 171 0 8 -228 13 -272
6 -10 -1 -2 -150 11 -197 29 -107 116 -196 224 -230 70 -21 282 -27 363 -9
124 27 229 97 272 181 55 108 61 316 12 402 l-19 32 38 0 39 0 0 -387 c0 -214
1 -407 1 -430 l1 -43 133 0 133 0 -1 427 0 428 78 3 77 3 0 89 0 89 -77 3 -78
3 0 50 c-1 120 31 139 150 87 141 -60 125 -63 123 25 l-3 77 -55 22 c-53 21
-55 23 -58 63 l-3 41 -102 0 c-57 1 -115 6 -130 13 -28 12 -22 15 160 88 l188
76 2 76 c1 43 1 77 0 77 -1 0 -103 -45 -227 -99z"/>
<path d="M2002 2113 l3 -77 155 -62 c85 -35 168 -68 184 -73 16 -6 27 -14 23
-17 -3 -3 -86 -38 -184 -78 l-178 -71 -3 -77 -3 -77 58 24 c32 13 155 66 273
118 l215 94 2 67 2 67 -47 20 c-26 11 -60 27 -77 34 -27 13 -311 136 -393 172
l-33 14 3 -78z"/>
</g>
</svg>
